<svg aria-hidden="true" style="position:absolute;width:0;height:0" xmlns="http://www.w3.org/2000/svg" overflow="hidden"><defs><symbol id="facebook" viewBox="0 0 16 32"><path d="M14.89.245v5.074s-3.739-.373-4.676 1.06c-.512.783-.208 3.078-.254 4.726h4.961c-.419 1.926-.719 3.231-1.028 4.898h-3.96v15.765H3.06c.001-4.86-.001-10.53 0-15.704H.136v-4.96h2.892c.148-3.627.203-7.22 2.006-9.05C7.058-.003 8.99.244 14.89.244z"/></symbol><symbol id="instagram" viewBox="0 0 32 32"><path d="M27.95 31.767H4.31a3.94 3.94 0 01-3.94-3.941V4.187A3.94 3.94 0 014.31.246h23.64a3.94 3.94 0 013.94 3.941v23.639a3.94 3.94 0 01-3.94 3.941zM16.13 9.898a6.102 6.102 0 00-5.538 3.546h-.006c-.01.022-.017.046-.027.068-.058.129-.108.262-.158.395-.023.065-.049.128-.07.192a5.408 5.408 0 00-.117.419c-.017.065-.037.13-.052.197a6.11 6.11 0 00-.075.453c-.009.062-.021.122-.028.185a6.107 6.107 0 1012.142 0c-.007-.063-.02-.123-.028-.185a6.11 6.11 0 00-.075-.453c-.015-.066-.034-.132-.052-.197a4.996 4.996 0 00-.117-.419c-.021-.064-.047-.127-.07-.192a6.132 6.132 0 00-.158-.395c-.01-.022-.017-.046-.027-.068h-.006a6.103 6.103 0 00-5.538-3.546zm12.214-4.531c0-.87-.706-1.575-1.576-1.575h-3.152c-.87 0-1.576.704-1.576 1.575V8.52c0 .87.706 1.576 1.576 1.576h3.152c.87 0 1.576-.706 1.576-1.576V5.367zm0 8.077h-2.906c.224.816.345 1.676.345 2.562 0 5.331-4.322 9.652-9.653 9.652s-9.653-4.32-9.653-9.652c0-.886.121-1.746.345-2.562H3.916v13.199c0 .872.706 1.577 1.576 1.577h21.276c.87 0 1.576-.706 1.576-1.577V13.444z"/></symbol><symbol id="printerest" viewBox="0 0 26 32"><path d="M11.145 20.752c-.257 1.026-.517 2.101-.786 3.152-.265 1.037-.499 2.088-.884 3.041-.639 1.577-1.45 3.102-2.515 4.335-.708.821-.558.494-.771.449-.163-.034-.176-.193-.208-.425-.174-1.253-.055-2.703.009-4.111.074-1.606.411-2.94.725-4.274.596-2.541 1.165-5.032 1.767-7.59.039-.17.148-.451.111-.548-.273-.71-.451-1.348-.528-2.094a6.664 6.664 0 01.171-2.392c.341-1.303 1.124-2.456 2.332-2.879.768-.266 1.619-.145 2.136.163.532.319.898.821 1.067 1.534.182.757.048 1.663-.098 2.328-.329 1.501-.761 2.627-1.154 4.075-.195.718-.415 1.455-.233 2.231a2.594 2.594 0 001.043 1.57c.525.382 1.145.59 2.001.56 1.512-.053 2.562-1.02 3.264-1.931 1.124-1.459 1.804-3.428 2.062-5.77.082-.756.144-1.624.086-2.48-.108-1.581-.602-2.853-1.388-3.838-.746-.939-1.805-1.686-3.093-2.107-1.277-.416-3.044-.555-4.614-.287-2.854.489-4.866 2.11-6.052 4.35-.621 1.172-1.031 2.52-1.031 4.199 0 1.294.319 2.296.835 3.078.164.247.404.452.564.735.228.401-.034.999-.147 1.433-.135.523-.15 1.246-.761 1.258-.254.005-.571-.18-.786-.299-1.607-.888-2.582-2.503-2.982-4.598-.244-1.273-.243-2.757 0-3.987.234-1.191.67-2.288 1.154-3.178C3.443 4.604 4.912 3.124 6.7 2.068 8.074 1.255 9.624.685 11.511.411c.625-.091 1.273-.129 1.976-.163 2.054-.096 3.92.369 5.326.997a10.88 10.88 0 013.669 2.642c1.032 1.127 1.783 2.437 2.258 4.074.249.852.49 1.763.49 2.816 0 1.056-.223 1.986-.379 2.916-.584 3.482-2.24 6.33-4.726 7.951a8.15 8.15 0 01-2.16.996c-.821.239-1.758.419-2.762.348-.974-.067-1.772-.331-2.442-.71-.665-.376-1.224-.836-1.62-1.532z"/></symbol><symbol id="twiter" viewBox="0 0 38 32"><path d="M25.484.871c2.96-.052 4.536 1.026 6.04 2.397 1.278-.109 2.938-.822 3.916-1.32l.95-.519c-.559 1.509-1.315 2.691-2.48 3.588-.259.198-.515.467-.84.594v.019c1.659-.016 3.027-.765 4.326-1.171v.019c-.682 1.084-1.606 2.186-2.592 2.974l-1.193.947c.022 1.756-.026 3.433-.354 4.908-1.909 8.578-6.967 14.401-14.972 16.897-2.875.895-7.52 1.263-10.815.445-1.633-.405-3.108-.863-4.492-1.468-.77-.336-1.483-.7-2.164-1.116l-.671-.407c.742.022 1.612.227 2.442.092.752-.121 1.489-.089 2.183-.24 1.729-.38 3.264-.882 4.585-1.656.642-.375 1.615-.815 2.071-1.356-.859.015-1.637-.185-2.274-.409-2.472-.873-3.911-2.478-4.848-4.889.749.083 2.907.278 3.412-.148-.943-.052-1.849-.598-2.498-1.004-1.989-1.244-3.61-3.331-3.599-6.542l.783.371c.501.211 1.008.323 1.604.447.252.052.755.199 1.045.092h-.038c-.384-.447-1.011-.745-1.398-1.227-1.276-1.585-2.471-4.025-1.716-6.932.192-.738.496-1.388.821-1.989l.038.017c.148.311.48.54.69.8.652.808 1.455 1.534 2.274 2.174 2.791 2.183 5.304 3.524 9.34 4.517 1.024.253 2.207.445 3.431.447-.343-1-.233-2.619.036-3.587.681-2.436 2.158-4.189 4.326-5.131A9.296 9.296 0 0124.55.984l.933-.111z"/></symbol></defs></svg>