<svg aria-hidden="true" style="position: absolute; width: 0; height: 0; overflow: hidden;" version="1.1" xmlns="http://www.w3.org/2000/svg" xmlns:xlink="http://www.w3.org/1999/xlink">
<defs>

<symbol id="glass" viewBox="0 0 32 32">
<path d="M30.81 26.657c0.53 0.53 0.859 1.265 0.859 2.076 0 1.621-1.315 2.936-2.936 2.936-0.811 0-1.544-0.329-2.076-0.861v0l-8.604-8.602c-1.747 1.032-3.779 1.635-5.955 1.635-6.485 0-11.742-5.257-11.742-11.742s5.257-11.742 11.742-11.742c6.485 0 11.742 5.257 11.742 11.742 0 2.176-0.603 4.208-1.635 5.955l8.604 8.604zM12.098 3.29c-4.864 0-8.807 3.944-8.807 8.809s3.943 8.807 8.807 8.807c4.864 0 8.807-3.943 8.807-8.807s-3.943-8.809-8.807-8.809z"></path>
</symbol>

<symbol id="shop" viewBox="0 0 38 32">
<path d="M37.845 7.808h0.002l-5.284 11.742c-0.26 0.579-0.824 0.991-1.488 1.035v0l-15.218 1.014 0.88 2.511h16.57c1.945 0 3.523 1.578 3.523 3.525 0 1.945-1.578 3.523-3.523 3.523s-3.523-1.578-3.523-3.523h-16.439c0 1.945-1.578 3.523-3.523 3.523s-3.523-1.578-3.523-3.523c0-1.947 1.578-3.525 3.523-3.525h3.183l-6.781-19.373h-4.035c-0.974 0-1.761-0.79-1.761-1.761 0-0.974 0.788-1.761 1.761-1.761h5.284c0.769 0 1.416 0.495 1.657 1.181l0.006-0.002 1.025 2.931h26.081c0.974 0 1.761 0.788 1.761 1.761 0 0.256-0.058 0.5-0.158 0.722zM11.394 8.848l3.256 9.302 15.135-1.010 3.732-8.292h-22.123z"></path>
</symbol>
</defs>
</svg>
