<svg aria-hidden="true" style="position:absolute;width:0;height:0" xmlns="http://www.w3.org/2000/svg" overflow="hidden"><defs><symbol id="glass" viewBox="0 0 32 32"><path d="M30.81 26.657a2.937 2.937 0 01-4.153 4.151l-8.604-8.602a11.67 11.67 0 01-5.955 1.635C5.613 23.841.356 18.584.356 12.099S5.613.357 12.098.357c6.485 0 11.742 5.257 11.742 11.742a11.67 11.67 0 01-1.635 5.955l8.604 8.604zM12.098 3.29c-4.864 0-8.807 3.944-8.807 8.809s3.943 8.807 8.807 8.807c4.864 0 8.807-3.943 8.807-8.807S16.962 3.29 12.098 3.29z"/></symbol><symbol id="shop" viewBox="0 0 38 32"><path d="M37.845 7.808h.002L32.563 19.55a1.76 1.76 0 01-1.488 1.035l-15.218 1.014.88 2.511h16.57a3.524 3.524 0 010 7.048 3.524 3.524 0 01-3.523-3.523H13.345a3.524 3.524 0 11-3.523-3.525h3.183L6.224 4.737H2.189a1.761 1.761 0 010-3.522h5.284c.769 0 1.416.495 1.657 1.181l.006-.002 1.025 2.931h26.081a1.76 1.76 0 011.603 2.483zm-26.451 1.04l3.256 9.302 15.135-1.01 3.732-8.292H11.394z"/></symbol></defs></svg>