<svg aria-hidden="true" style="position: absolute; width: 0; height: 0; overflow: hidden;" version="1.1" xmlns="http://www.w3.org/2000/svg" xmlns:xlink="http://www.w3.org/1999/xlink">
<defs>
<symbol id="facebook" viewBox="0 0 16 32">
<path d="M14.89 0.245c0 1.817 0 5.074 0 5.074s-3.739-0.373-4.676 1.060c-0.512 0.783-0.208 3.078-0.254 4.726 1.633 0 3.328 0 4.961 0-0.419 1.926-0.719 3.231-1.028 4.898-1.412 0-3.96 0-3.96 0v15.765c0 0-4.675 0-6.873 0 0.001-4.86-0.001-10.53 0-15.704-1.067 0-1.857 0-2.924 0 0-1.817 0-3.141 0-4.96 1.036 0 1.855 0 2.892 0 0.148-3.627 0.203-7.22 2.006-9.050 2.024-2.057 3.956-1.81 9.856-1.81z"></path>
</symbol>
<symbol id="instagram" viewBox="0 0 32 32">
<path d="M27.95 31.767h-23.64c-2.176 0-3.94-1.764-3.94-3.941v-23.639c0-2.177 1.764-3.941 3.94-3.941h23.64c2.176 0 3.94 1.764 3.94 3.941v23.639c0 2.177-1.764 3.941-3.94 3.941zM16.13 9.898c-2.458 0-4.569 1.455-5.538 3.546h-0.006c-0.010 0.022-0.017 0.046-0.027 0.068-0.058 0.129-0.108 0.262-0.158 0.395-0.023 0.065-0.049 0.128-0.070 0.192-0.046 0.138-0.082 0.277-0.117 0.419-0.017 0.065-0.037 0.13-0.052 0.197-0.032 0.149-0.054 0.3-0.075 0.453-0.009 0.062-0.021 0.122-0.028 0.185-0.022 0.214-0.036 0.432-0.036 0.654 0 3.372 2.735 6.106 6.107 6.106s6.107-2.733 6.107-6.106c0-0.222-0.014-0.44-0.036-0.654-0.007-0.063-0.020-0.123-0.028-0.185-0.021-0.153-0.043-0.304-0.075-0.453-0.015-0.066-0.034-0.132-0.052-0.197-0.034-0.142-0.071-0.281-0.117-0.419-0.021-0.064-0.047-0.127-0.070-0.192-0.049-0.133-0.1-0.266-0.158-0.395-0.010-0.022-0.017-0.046-0.027-0.068h-0.006c-0.969-2.091-3.081-3.546-5.538-3.546zM28.344 5.367c0-0.87-0.706-1.575-1.576-1.575h-3.152c-0.87 0-1.576 0.704-1.576 1.575v3.153c0 0.87 0.706 1.576 1.576 1.576h3.152c0.87 0 1.576-0.706 1.576-1.576v-3.153zM28.344 13.444h-2.906c0.224 0.816 0.345 1.676 0.345 2.562 0 5.331-4.322 9.652-9.653 9.652s-9.653-4.32-9.653-9.652c0-0.886 0.121-1.746 0.345-2.562h-2.906v13.199c0 0.872 0.706 1.577 1.576 1.577h21.276c0.87 0 1.576-0.706 1.576-1.577v-13.199z"></path>
</symbol>
<symbol id="printerest" viewBox="0 0 26 32">
<path d="M11.145 20.752c-0.257 1.026-0.517 2.101-0.786 3.152-0.265 1.037-0.499 2.088-0.884 3.041-0.639 1.577-1.45 3.102-2.515 4.335-0.708 0.821-0.558 0.494-0.771 0.449-0.163-0.034-0.176-0.193-0.208-0.425-0.174-1.253-0.055-2.703 0.009-4.111 0.074-1.606 0.411-2.94 0.725-4.274 0.596-2.541 1.165-5.032 1.767-7.59 0.039-0.17 0.148-0.451 0.111-0.548-0.273-0.71-0.451-1.348-0.528-2.094-0.090-0.856-0.021-1.655 0.171-2.392 0.341-1.303 1.124-2.456 2.332-2.879 0.768-0.266 1.619-0.145 2.136 0.163 0.532 0.319 0.898 0.821 1.067 1.534 0.182 0.757 0.048 1.663-0.098 2.328-0.329 1.501-0.761 2.627-1.154 4.075-0.195 0.718-0.415 1.455-0.233 2.231 0.167 0.712 0.538 1.202 1.043 1.57 0.525 0.382 1.145 0.59 2.001 0.56 1.512-0.053 2.562-1.020 3.264-1.931 1.124-1.459 1.804-3.428 2.062-5.77 0.082-0.756 0.144-1.624 0.086-2.48-0.108-1.581-0.602-2.853-1.388-3.838-0.746-0.939-1.805-1.686-3.093-2.107-1.277-0.416-3.044-0.555-4.614-0.287-2.854 0.489-4.866 2.11-6.052 4.35-0.621 1.172-1.031 2.52-1.031 4.199 0 1.294 0.319 2.296 0.835 3.078 0.164 0.247 0.404 0.452 0.564 0.735 0.228 0.401-0.034 0.999-0.147 1.433-0.135 0.523-0.15 1.246-0.761 1.258-0.254 0.005-0.571-0.18-0.786-0.299-1.607-0.888-2.582-2.503-2.982-4.598-0.244-1.273-0.243-2.757 0-3.987 0.234-1.191 0.67-2.288 1.154-3.178 1.002-1.851 2.471-3.331 4.259-4.387 1.374-0.813 2.924-1.383 4.811-1.657 0.625-0.091 1.273-0.129 1.976-0.163 2.054-0.096 3.92 0.369 5.326 0.997 1.484 0.664 2.668 1.546 3.669 2.642 1.032 1.127 1.783 2.437 2.258 4.074 0.249 0.852 0.49 1.763 0.49 2.816 0 1.056-0.223 1.986-0.379 2.916-0.584 3.482-2.24 6.33-4.726 7.951-0.602 0.392-1.331 0.755-2.16 0.996-0.821 0.239-1.758 0.419-2.762 0.348-0.974-0.067-1.772-0.331-2.442-0.71-0.665-0.376-1.224-0.836-1.62-1.532z"></path>
</symbol>
<symbol id="twiter" viewBox="0 0 38 32">
<path d="M25.484 0.871c2.96-0.052 4.536 1.026 6.040 2.397 1.278-0.109 2.938-0.822 3.916-1.32 0.316-0.172 0.633-0.346 0.95-0.519-0.559 1.509-1.315 2.691-2.48 3.588-0.259 0.198-0.515 0.467-0.84 0.594 0 0.006 0 0.013 0 0.019 1.659-0.016 3.027-0.765 4.326-1.171 0 0.006 0 0.013 0 0.019-0.682 1.084-1.606 2.186-2.592 2.974-0.397 0.316-0.796 0.632-1.193 0.947 0.022 1.756-0.026 3.433-0.354 4.908-1.909 8.578-6.967 14.401-14.972 16.897-2.875 0.895-7.52 1.263-10.815 0.445-1.633-0.405-3.108-0.863-4.492-1.468-0.77-0.336-1.483-0.7-2.164-1.116-0.224-0.135-0.447-0.272-0.671-0.407 0.742 0.022 1.612 0.227 2.442 0.092 0.752-0.121 1.489-0.089 2.183-0.24 1.729-0.38 3.264-0.882 4.585-1.656 0.642-0.375 1.615-0.815 2.071-1.356-0.859 0.015-1.637-0.185-2.274-0.409-2.472-0.873-3.911-2.478-4.848-4.889 0.749 0.083 2.907 0.278 3.412-0.148-0.943-0.052-1.849-0.598-2.498-1.004-1.989-1.244-3.61-3.331-3.599-6.542 0.262 0.124 0.522 0.247 0.783 0.371 0.501 0.211 1.008 0.323 1.604 0.447 0.252 0.052 0.755 0.199 1.045 0.092-0.013 0-0.025 0-0.038 0-0.384-0.447-1.011-0.745-1.398-1.227-1.276-1.585-2.471-4.025-1.716-6.932 0.192-0.738 0.496-1.388 0.821-1.989 0.013 0.006 0.025 0.012 0.038 0.017 0.148 0.311 0.48 0.54 0.69 0.8 0.652 0.808 1.455 1.534 2.274 2.174 2.791 2.183 5.304 3.524 9.34 4.517 1.024 0.253 2.207 0.445 3.431 0.447-0.343-1-0.233-2.619 0.036-3.587 0.681-2.436 2.158-4.189 4.326-5.131 0.518-0.224 1.093-0.389 1.697-0.521 0.311-0.036 0.621-0.074 0.933-0.111z"></path>
</symbol>
</defs>
</svg>
